<svg xmlns="http://www.w3.org/2000/svg" viewBox="0 0 64 64">
  <defs>
    <linearGradient id="g1" x1="0%" y1="0%" x2="100%" y2="100%">
      <stop offset="0%" stop-color="#E8C88A"/>
      <stop offset="100%" stop-color="#A67C3D"/>
    </linearGradient>
    <linearGradient id="g2" x1="0%" y1="100%" x2="0%" y2="0%">
      <stop offset="0%" stop-color="#C4834E"/>
      <stop offset="100%" stop-color="#E8C88A"/>
    </linearGradient>
  </defs>
  <!-- Background circle -->
  <circle cx="32" cy="32" r="32" fill="#0C0A09"/>
  <circle cx="32" cy="32" r="30" fill="none" stroke="url(#g1)" stroke-width="1" opacity="0.3"/>
  <!-- Cup body -->
  <path d="M16 28h24v4c0 8-4.5 14-12 14s-12-6-12-14v-4z" fill="url(#g2)" opacity="0.9"/>
  <!-- Cup rim -->
  <rect x="14" y="26" width="28" height="4" rx="2" fill="url(#g1)"/>
  <!-- Handle -->
  <path d="M40 30c4 0 7 2 7 6s-3 6-7 6" fill="none" stroke="url(#g1)" stroke-width="2.5" stroke-linecap="round"/>
  <!-- Saucer -->
  <ellipse cx="28" cy="48" rx="16" ry="3" fill="url(#g1)" opacity="0.25"/>
  <!-- Steam lines -->
  <path d="M22 22c0-3 2-4 0-7" fill="none" stroke="#E8C88A" stroke-width="1.5" stroke-linecap="round" opacity="0.5">
    <animate attributeName="opacity" values="0.3;0.6;0.3" dur="2s" repeatCount="indefinite"/>
    <animate attributeName="d" values="M22 22c0-3 2-4 0-7;M22 21c0-3-1.5-4 0-8;M22 22c0-3 2-4 0-7" dur="2.5s" repeatCount="indefinite"/>
  </path>
  <path d="M28 20c0-3-1.5-4 0-8" fill="none" stroke="#E8C88A" stroke-width="1.5" stroke-linecap="round" opacity="0.4">
    <animate attributeName="opacity" values="0.4;0.7;0.4" dur="2.2s" repeatCount="indefinite"/>
    <animate attributeName="d" values="M28 20c0-3-1.5-4 0-8;M28 21c0-3 2-4 0-7;M28 20c0-3-1.5-4 0-8" dur="2.8s" repeatCount="indefinite"/>
  </path>
  <path d="M34 22c0-3 1.5-4 0-7" fill="none" stroke="#E8C88A" stroke-width="1.5" stroke-linecap="round" opacity="0.35">
    <animate attributeName="opacity" values="0.35;0.65;0.35" dur="1.8s" repeatCount="indefinite"/>
    <animate attributeName="d" values="M34 22c0-3 1.5-4 0-7;M34 21c0-3-2-4 0-8;M34 22c0-3 1.5-4 0-7" dur="2.3s" repeatCount="indefinite"/>
  </path>
</svg>
